<svg xmlns="http://www.w3.org/2000/svg" width="75" height="25"><g transform="translate(-29.56 -13.98) scale(.02112)"><rect width="1100.224" height="1101.001" x="1415.947" y="678.355" fill="#fff" stroke="#000" stroke-width="33.138" paint-order="markers stroke fill" ry="265.221"/><rect width="1055.378" height="1056.123" x="1438.37" y="700.793" ry="254.341"/><rect width="816.989" height="817.559" x="1557.565" y="820.076" fill="#333" ry="196.888"/><path fill="#d500cb" stroke="#000" stroke-width="44.357" d="M1966.059 735.739c-52.307-.012-75.866 134.204-73.647 213.197 49.157-9.433 93.638-10.296 147.295 0 2.224-78.818-21.301-213.209-73.647-213.197zm-236.622 774.474c.498 8.059 6.184 14.472 13.327 15.051l142.239 11.456c7.497.62 14.145-5.423 15.241-13.823l8.168-62.41h115.293l8.168 62.41c1.096 8.4 7.744 14.444 15.241 13.823l142.239-11.456c7.142-.579 12.829-6.992 13.327-15.051l4.154-66.886 50.511-.663c-.844 124.332-15.379 232.83-291.287 233.957-273.292-1.116-290.809-107.292-291.287-233.947l50.53.672zm144.314-6.941-116.491-9.367c-1.379-22.172-2.749-44.344-4.12-66.516-.487-7.909-5.966-14.26-12.961-15.022-29.77-3.24-127.802 11.149-134.728-37.452-23.044-184.804 100.494-401.602 360.609-403.512 260.12 1.909 383.653 218.712 360.609 403.512-6.926 48.601-104.958 34.212-134.728 37.452-6.995.762-12.474 7.113-12.961 15.022l-4.099 66.496-116.503 9.373-8.033-61.374c-1.04-7.959-7.083-13.853-14.218-13.853-46.713-.753-93.421-.342-140.135 0-7.135.053-13.178 5.894-14.218 13.853z" paint-order="markers stroke fill"/><ellipse cx="73.755" cy="213.685" rx="2.846" ry="3.21" transform="translate(69.394 -4790.607) scale(28.277)"/><ellipse cx="73.483" cy="213.875" fill="#fff" rx="1.889" ry="2.131" transform="translate(69.394 -4790.607) scale(28.277)"/><ellipse cx="60.394" cy="213.686" rx="2.846" ry="3.21" transform="translate(69.394 -4790.607) scale(28.277)"/><ellipse cx="60.665" cy="213.875" fill="#fff" rx="1.889" ry="2.131" transform="translate(69.394 -4790.607) scale(28.277)"/><path fill="#fff" stroke="#000" stroke-width="33.138" d="M3520.046 1432.834v56.424h76.998v31.485h-76.998v83.389h-38.967v-203.718h120.33v32.42zm216.5 74.504q.312-8.884-.935-15.119-1.091-6.235-3.741-10.287-2.494-4.053-6.235-5.923t-8.573-1.87q-8.417 0-17.457 7.014-8.884 6.858-19.639 22.757v100.223h-38.967v-158.361h34.447l1.403 23.068q3.897-6.079 8.729-10.911 4.988-4.832 10.911-8.261 6.079-3.585 13.405-5.455t16.054-1.87q12.002 0 21.198 4.208 9.352 4.053 15.587 12.158 6.391 8.105 9.352 20.419 3.117 12.158 2.65 28.212zm157.893 96.794-.935-20.73q-4.988 5.3-10.443 9.82-5.455 4.364-12.002 7.638-6.546 3.273-14.34 4.988-7.638 1.87-16.834 1.87-12.158 0-21.354-3.585t-15.431-9.976q-6.235-6.391-9.508-15.431-3.117-9.04-3.117-19.951 0-11.222 4.676-20.73 4.832-9.508 14.496-16.366 9.82-6.858 24.315-10.755 14.652-3.897 34.291-3.897h20.73v-9.508q0-6.079-1.714-10.911-1.714-4.988-5.611-8.417-3.741-3.429-9.82-5.3-6.079-1.87-14.963-1.87-14.028 0-27.744 3.273-13.56 3.117-26.342 8.884v-30.394q11.378-4.52 26.186-7.482 14.963-2.962 31.018-2.962 17.613 0 30.238 3.429 12.625 3.273 20.73 9.976 8.261 6.702 12.158 16.834 3.897 9.976 3.897 23.38v108.172zm-5.455-69.984h-23.224q-9.664 0-16.366 1.87t-10.911 5.144q-4.208 3.273-6.235 7.638-1.87 4.208-1.87 9.04 0 9.664 6.235 14.807 6.235 4.988 16.99 4.988 7.949 0 16.522-5.767 8.573-5.767 18.86-16.522zm178.468 69.984v-107.86q0-5.923-.312-10.287-.312-4.52-1.247-7.482-.935-2.962-2.806-4.364-1.714-1.559-4.832-1.559-4.832 0-9.508 6.546-4.676 6.546-10.599 22.289v102.717h-32.576v-107.86q0-5.923-.312-10.287-.312-4.52-1.247-7.482-.935-2.962-2.806-4.364-1.87-1.559-4.988-1.559-4.053 0-9.04 6.546-4.988 6.546-11.067 22.289v102.717h-32.888v-158.361h28.212l.624 23.068q3.429-7.014 6.858-12.002t7.326-8.105q3.897-3.273 8.261-4.676 4.52-1.403 10.131-1.403 13.249 0 20.107 7.014 7.014 6.858 7.949 19.172 3.741-7.014 7.326-12.002 3.741-4.988 7.638-8.105 4.053-3.273 8.573-4.676 4.676-1.403 10.287-1.403 17.301 0 25.562 12.158 8.261 12.002 8.261 35.694v113.627zm186.729-91.338q0 3.897-.312 10.131-.156 6.235-.623 11.69h-104.119q0 10.443 3.117 18.392 3.273 7.949 9.04 13.405 5.923 5.3 14.028 8.105 8.261 2.806 18.236 2.806 11.534 0 24.627-1.714 13.249-1.87 27.433-5.923v30.238q-6.079 1.714-13.249 3.117-7.17 1.403-14.652 2.494-7.482 1.091-15.119 1.559-7.638.624-14.807.624-18.081 0-32.42-5.144-14.34-5.144-24.315-15.119-9.976-10.131-15.275-24.939-5.3-14.807-5.3-34.291 0-19.328 5.3-35.07 5.3-15.898 14.963-27.121 9.664-11.378 23.38-17.457 13.872-6.235 30.862-6.235 16.834 0 29.771 5.3 12.937 5.144 21.666 14.496 8.729 9.352 13.249 22.289 4.52 12.937 4.52 28.368zm-38.655-5.455q.156-9.352-2.338-16.21-2.494-7.014-6.858-11.534-4.208-4.52-9.976-6.702-5.611-2.182-12.158-2.182-14.34 0-23.536 9.664-9.196 9.508-10.911 26.965zm191.249 96.794h-42.24l-16.834-50.189-5.144-17.457-5.144 17.925-16.21 49.722h-42.396l-22.445-158.361h36.161l11.378 89.468 2.65 24.471 6.391-21.977 15.899-48.163h28.991l16.99 47.851 7.326 22.601 2.962-25.095 9.508-89.156h34.447zm173.168-80.427q0 18.704-5.3 34.291-5.3 15.431-15.275 26.497-9.976 11.067-24.471 17.145-14.496 6.079-33.044 6.079-17.613 0-31.485-5.144t-23.536-15.275q-9.664-10.287-14.807-25.562-5.144-15.431-5.144-35.849 0-18.86 5.3-34.291 5.455-15.431 15.431-26.342 10.131-10.911 24.627-16.834 14.496-6.079 32.732-6.079 17.769 0 31.641 5.3 13.872 5.144 23.536 15.431 9.664 10.287 14.652 25.562 5.144 15.119 5.144 35.07zm-39.59.935q0-24.627-9.352-36.941-9.196-12.469-27.277-12.469-9.976 0-16.99 3.897-7.014 3.897-11.534 10.755-4.52 6.702-6.702 15.743-2.026 9.04-2.026 19.328 0 24.783 9.976 37.408 9.976 12.469 27.277 12.469 9.508 0 16.522-3.741 7.014-3.897 11.378-10.599 4.364-6.858 6.546-16.054 2.182-9.196 2.182-19.795zm159.452-17.301q.312-8.884-.935-15.119-1.091-6.235-3.741-10.287-2.494-4.053-6.235-5.923t-8.573-1.87q-8.417 0-17.457 7.014-8.884 6.858-19.639 22.757v100.223h-38.967v-158.361h34.447l1.403 23.068q3.897-6.079 8.729-10.911 4.988-4.832 10.911-8.261 6.079-3.585 13.405-5.455t16.054-1.87q12.002 0 21.198 4.208 9.352 4.053 15.587 12.158 6.391 8.105 9.352 20.419 3.117 12.158 2.65 28.212zm156.646 96.794-58.45-79.181v79.181h-38.032v-220.24h38.032v128.902l55.333-67.023h47.539l-64.217 72.166 69.517 86.195zm-1988.129-282.589q-23.731 9.547-46.098 14.184-22.094 4.637-46.098 4.637-38.46 0-68.192-11.184-29.459-11.456-49.917-33.823-20.185-22.367-30.823-55.372-10.365-33.278-10.365-77.193 0-45.007 11.456-79.921 11.456-35.187 32.732-59.191 21.276-24.276 51.553-36.824 30.55-12.82 68.465-12.82 12.275 0 22.913.546 10.911.546 21.276 2.182 10.365 1.364 21.003 3.819t22.094 6.274v66.555q-23.185-10.911-44.188-15.548-21.003-4.637-38.188-4.637-25.367 0-43.37 9.274-18.003 9.001-29.732 25.64-11.456 16.366-16.912 39.279-5.455 22.64-5.455 49.916 0 28.913 5.455 51.826 5.728 22.64 17.457 38.46 11.729 15.82 30.005 24.276 18.276 8.183 43.37 8.183 9.001 0 19.367-1.637 10.638-1.909 21.276-4.637 10.911-3 21.276-6.819 10.638-4.091 19.639-8.183zm122.239-263.221v180.572q0 22.64 8.456 34.369 8.456 11.456 25.64 11.456 16.639 0 31.914-13.638 15.548-13.911 32.732-37.369v-175.39h66.555v277.132h-57.554l-1.637-40.915q-8.729 10.638-17.73 19.366-9.001 8.729-19.639 15.002-10.365 6.001-22.913 9.274-12.275 3.546-27.277 3.546-21.276 0-37.369-6.819-15.821-7.092-26.459-19.912t-16.093-30.55q-5.183-18.003-5.183-40.097v-186.028zm475.474 133.656q0 38.188-10.911 66.01-10.638 27.822-30.005 46.371-19.094 18.276-45.279 27.277-26.186 8.729-57.009 8.729-10.365 0-20.73-1.364t-18.821-3.546v108.289h-66.555v-385.421h57.554l1.637 40.915q8.456-10.638 17.457-19.366 9.274-8.729 19.912-14.73 10.638-6.274 22.913-9.547 12.275-3.273 27.55-3.273 24.549 0 43.643 9.82t31.914 28.095q13.093 18.003 19.912 43.916 6.819 25.64 6.819 57.827zm-69.829 2.728q0-22.913-3.273-39.006t-9.547-26.459q-6.001-10.365-15.002-15.002-8.729-4.91-20.185-4.91-16.912 0-32.459 13.638-15.275 13.638-32.459 37.096v121.109q7.91 3 19.366 4.91 11.729 1.909 23.731 1.909 15.821 0 28.641-6.547 13.093-6.546 22.094-18.548 9.274-12.002 14.184-29.186 4.91-17.457 4.91-39.006zm336.908 130.11q-19.639 7.91-40.642 11.729-21.003 3.819-43.916 3.819-33.005 0-59.191-9.001t-44.461-26.731q-18.276-17.73-28.095-43.916-9.547-26.186-9.547-60.554 0-33.278 10.365-60.282 10.638-27.004 29.732-46.098 19.094-19.094 45.825-29.459 27.004-10.365 60.009-10.365 27.004 0 45.279 3.001 18.548 2.728 33.278 7.092v64.646q-16.912-8.456-36.824-13.093-19.639-4.637-37.369-4.637-18.548 0-33.278 6.274t-24.822 17.457q-10.092 11.184-15.548 27.277-5.183 15.82-5.183 34.914 0 19.912 5.728 35.733 5.728 15.821 16.093 27.004 10.638 10.911 25.367 16.912 14.73 5.728 32.732 5.728 8.729 0 18.275-1.091 9.82-1.364 19.367-3.546 9.82-2.455 19.094-5.455 9.547-3 17.73-6.546zm241.712 10.638-1.637-36.278q-8.729 9.274-18.276 17.184-9.547 7.638-21.003 13.366t-25.095 8.729q-13.366 3.273-29.459 3.273-21.276 0-37.369-6.274t-27.004-17.457q-10.911-11.183-16.639-27.004-5.455-15.82-5.455-34.914 0-19.639 8.183-36.278 8.456-16.639 25.368-28.641 17.184-12.002 42.552-18.821 25.64-6.819 60.009-6.819h36.278v-16.639q0-10.638-3-19.094-3.001-8.729-9.82-14.73-6.546-6.001-17.184-9.274-10.638-3.273-26.186-3.273-24.549 0-48.553 5.728-23.731 5.455-46.098 15.548v-53.19q19.912-7.91 45.825-13.093 26.186-5.183 54.281-5.183 30.823 0 52.917 6.001 22.094 5.728 36.278 17.457 14.457 11.729 21.276 29.459 6.819 17.457 6.819 40.915v189.301zm-9.547-122.473h-40.642q-16.912 0-28.641 3.273t-19.094 9.001q-7.365 5.728-10.911 13.366-3.273 7.365-3.273 15.821 0 16.912 10.911 25.913 10.911 8.729 29.732 8.729 13.911 0 28.913-10.092t33.005-28.913zm299.538 122.473-102.288-138.566v138.566h-66.555V950.035h66.555v225.579l96.833-117.29h83.194l-112.38 126.292 121.655 150.841zm362.002-159.842q0 6.819-.545 17.73-.273 10.911-1.091 20.458h-182.209q0 18.276 5.455 32.187 5.728 13.911 15.821 23.458 10.365 9.274 24.549 14.184 14.457 4.91 31.914 4.91 20.185 0 43.097-3.001 23.185-3.273 48.007-10.365v52.917q-10.638 3-23.185 5.455-12.547 2.455-25.64 4.364-13.093 1.909-26.459 2.728-13.366 1.091-25.913 1.091-31.641 0-56.736-9.001t-42.552-26.459q-17.457-17.73-26.731-43.643-9.274-25.913-9.274-60.009 0-33.823 9.274-61.373 9.274-27.822 26.186-47.462 16.912-19.912 40.915-30.55 24.276-10.911 54.008-10.911 29.459 0 52.099 9.274 22.64 9.001 37.915 25.368 15.275 16.366 23.185 39.006 7.91 22.64 7.91 49.644zm-67.647-9.547q.273-16.366-4.091-28.368-4.364-12.275-12.002-20.185-7.365-7.91-17.457-11.729-9.82-3.819-21.276-3.819-25.095 0-41.188 16.912-16.093 16.639-19.094 47.189zm347 87.831q0 23.731-10.638 40.642-10.365 16.639-27.822 27.277-17.184 10.365-39.279 15.002-21.821 4.91-44.734 4.91-30.55 0-55.099-3.001-24.549-2.728-46.371-8.183v-60.009q25.64 10.638 51.008 15.548 25.64 4.637 48.28 4.637 26.186 0 39.006-8.183 13.093-8.456 13.093-21.822 0-6.274-2.728-11.456-2.728-5.183-10.365-9.82-7.365-4.91-21.003-9.82-13.638-5.183-35.733-11.456-20.458-5.728-36.005-12.82-15.275-7.365-25.367-17.184-10.092-9.82-15.275-22.64-4.91-13.093-4.91-30.55 0-16.912 7.638-31.914 7.638-15.002 22.64-26.186 15.275-11.456 37.915-18.003 22.64-6.547 52.917-6.547 26.186 0 46.371 2.728 20.185 2.728 35.733 6.001v54.281q-23.731-7.638-44.734-10.638-20.73-3.273-41.188-3.273-20.458 0-33.005 7.365-12.275 7.365-12.275 20.458 0 6.274 2.455 11.184 2.455 4.91 9.547 9.547 7.365 4.637 20.185 9.82 13.093 4.91 34.369 10.911 24.004 6.819 40.37 14.73 16.366 7.638 26.186 17.457 10.092 9.82 14.457 22.367 4.364 12.547 4.364 28.641z" paint-order="markers stroke"/></g></svg>