<svg width="128" height="128" viewBox=".612 -.002 22 23.252" xmlns="http://www.w3.org/2000/svg"><g transform="translate(-29.91 -14.33) scale(.02112)"><rect x="1415.947" y="678.355" width="1100.224" height="1101.001" ry="265.221" fill="#fff"/><rect x="1438.37" y="700.793" width="1055.378" height="1056.123" ry="254.341"/><rect x="1557.565" y="820.076" width="816.989" height="817.559" ry="196.888" fill="#333"/><path d="M1966.059 735.739c-52.307-.012-75.866 134.204-73.647 213.197 49.157-9.433 93.638-10.296 147.295 0 2.224-78.818-21.301-213.209-73.647-213.197zm-236.622 774.474c.498 8.059 6.184 14.472 13.327 15.051l142.239 11.456c7.497.62 14.145-5.423 15.241-13.823l8.168-62.41h115.293l8.168 62.41c1.096 8.4 7.744 14.444 15.241 13.823l142.239-11.456c7.142-.579 12.829-6.992 13.327-15.051l4.154-66.886 50.511-.663c-.844 124.332-15.379 232.83-291.287 233.957-273.292-1.116-290.809-107.292-291.287-233.947l50.53.672zm144.314-6.941-116.491-9.367c-1.379-22.172-2.749-44.344-4.12-66.516-.487-7.909-5.966-14.26-12.961-15.022-29.77-3.24-127.802 11.149-134.728-37.452-23.044-184.804 100.494-401.602 360.609-403.512 260.12 1.909 383.653 218.712 360.609 403.512-6.926 48.601-104.958 34.212-134.728 37.452-6.995.762-12.474 7.113-12.961 15.022l-4.099 66.496-116.503 9.373-8.033-61.374c-1.04-7.959-7.083-13.853-14.218-13.853-46.713-.753-93.421-.342-140.135 0-7.135.053-13.178 5.894-14.218 13.853z" fill="#d500cb" stroke="#000" stroke-width="44.357" paint-order="markers stroke fill"/><ellipse transform="translate(69.394-4790.607) scale(28.277)" cx="73.755" cy="213.685" rx="2.846" ry="3.21"/><ellipse transform="translate(69.394-4790.607) scale(28.277)" cx="73.483" cy="213.875" rx="1.889" ry="2.131" fill="#fff"/><ellipse transform="translate(69.394-4790.607) scale(28.277)" cx="60.394" cy="213.686" rx="2.846" ry="3.21"/><ellipse transform="translate(69.394-4790.607) scale(28.277)" cx="60.665" cy="213.875" rx="1.889" ry="2.131" fill="#fff"/></g></svg>